<svg id="Group_7" data-name="Group 7" xmlns="http://www.w3.org/2000/svg" xmlns:xlink="http://www.w3.org/1999/xlink" width="23" height="23" viewBox="0 0 23 23">
  <defs>
    <clipPath id="clip-path">
      <rect id="Rectangle_7" data-name="Rectangle 7" width="23" height="23" fill="#fff"/>
    </clipPath>
  </defs>
  <g id="Group_6" data-name="Group 6" clip-path="url(#clip-path)">
    <path id="Path_10" data-name="Path 10" d="M19.646,3.37a11.51,11.51,0,1,0,3.372,8.137A11.51,11.51,0,0,0,19.646,3.37M17.43,16.033l0,0v0l-.583.579a3.069,3.069,0,0,1-2.9.829,10.2,10.2,0,0,1-2.962-1.327,13.684,13.684,0,0,1-2.336-1.884A13.79,13.79,0,0,1,6.905,12.11,10.741,10.741,0,0,1,5.593,9.455a3.069,3.069,0,0,1,.767-3.134l.683-.683a.487.487,0,0,1,.689,0l0,0L9.89,7.794a.487.487,0,0,1,0,.689l0,0L8.624,9.751a1.032,1.032,0,0,0-.107,1.343,14.807,14.807,0,0,0,1.515,1.769,14.716,14.716,0,0,0,1.995,1.677,1.04,1.04,0,0,0,1.327-.115l1.224-1.243a.487.487,0,0,1,.689,0l0,0,2.16,2.164a.487.487,0,0,1,0,.689" transform="translate(0 -0.001)" fill="#fff"/>
  </g>
</svg>
