<svg xmlns="http://www.w3.org/2000/svg" xmlns:xlink="http://www.w3.org/1999/xlink" width="23" height="23" viewBox="0 0 23 23">
  <defs>
    <clipPath id="clip-path">
      <rect id="Rectangle_6" data-name="Rectangle 6" width="23" height="23" transform="translate(-0.181 -0.181)" fill="#fff"/>
    </clipPath>
  </defs>
  <g id="Group_4" data-name="Group 4" transform="translate(0.181 0.181)">
    <g id="Group_3" data-name="Group 3" clip-path="url(#clip-path)">
      <path id="Path_9" data-name="Path 9" d="M11.22,22.439a11.22,11.22,0,1,1,11.22-11.22,11.221,11.221,0,0,1-11.22,11.22m0-18.517a5.557,5.557,0,0,1,5.557,5.557c0,3.069-5.557,9.038-5.557,9.038S5.662,12.548,5.662,9.479A5.557,5.557,0,0,1,11.22,3.922m0,3.349A2.107,2.107,0,1,1,9.112,9.379,2.108,2.108,0,0,1,11.22,7.271" fill="#fff" fill-rule="evenodd"/>
    </g>
  </g>
</svg>
